<?xml version="1.0" standalone="no"?>
<!DOCTYPE svg PUBLIC "-//W3C//DTD SVG 20010904//EN"
 "http://www.w3.org/TR/2001/REC-SVG-20010904/DTD/svg10.dtd">
<svg version="1.0" xmlns="http://www.w3.org/2000/svg"
 width="260.000000pt" height="260.000000pt" viewBox="0 0 260.000000 260.000000"
 preserveAspectRatio="xMidYMid meet">
<metadata>
Created by potrace 1.11, written by Peter Selinger 2001-2013
</metadata>
<g transform="translate(0.000000,260.000000) scale(0.100000,-0.100000)"
fill="#000000" stroke="none">
<path d="M686 2230 c-63 -26 -87 -45 -298 -251 -277 -271 -302 -306 -302 -433
0 -60 5 -90 18 -116 10 -19 105 -123 210 -230 105 -107 203 -210 218 -228 29
-35 49 -40 68 -17 11 13 11 26 0 69 -23 95 -20 99 284 401 149 149 297 294
328 322 42 38 58 60 58 78 0 39 -340 369 -419 407 -69 34 -79 34 -165 -2z"/>
<path d="M1746 2134 c-33 -17 -110 -89 -235 -218 -102 -105 -323 -328 -492
-496 -286 -285 -307 -309 -322 -359 -23 -72 -21 -139 4 -207 19 -51 45 -80
256 -288 129 -127 253 -242 276 -256 34 -20 54 -25 117 -25 65 0 82 4 127 31
35 20 216 191 529 499 421 414 481 477 506 530 38 82 38 144 -2 233 -28 60
-55 91 -263 298 -255 255 -283 275 -392 281 -49 3 -69 -1 -109 -23z"/>
</g>
</svg>
